<svg width="68" height="64" viewBox="0 0 68 64" fill="none" xmlns="http://www.w3.org/2000/svg">
<path d="M58.6264 7.90765C52.6861 2.91459 44.1931 -0.00236824 33.8075 1.44271e-06C23.9528 1.44271e-06 15.5383 2.76214 9.52075 7.68977C6.51325 10.1498 4.12124 13.1522 2.49151 16.5666C0.859651 19.9802 -0.00251157 23.7971 5.49565e-06 27.8494C-0.00251157 32.7486 1.02909 37.2736 3.11468 41.2219C5.10051 44.9955 8.05568 48.2046 11.8183 50.7142C10.9287 54.4358 9.67787 59.7546 9.67787 59.7571C9.62064 59.996 9.5907 60.245 9.59322 60.4975C9.59083 61.4967 10.0593 62.4587 10.8739 63.0789L10.8789 63.0825V63.0839C11.4621 63.5246 12.1646 63.75 12.8674 63.75C13.3957 63.75 13.9313 63.6224 14.4147 63.3637L14.4622 63.339L14.5094 63.3106C14.512 63.3094 15.1823 62.9143 16.2139 62.3077C17.7587 61.3989 20.1134 60.016 22.2139 58.7867C23.263 58.1725 24.2497 57.5968 25.037 57.14C25.8218 56.6845 26.4249 56.3366 26.6493 56.214L26.6592 56.2078L26.674 56.1993C29.6018 54.5501 31.9341 54.2727 33.8078 54.2628C41.5845 54.2516 49.8656 52.7536 56.4786 48.6519C59.7776 46.5979 62.6481 43.8582 64.6665 40.3507C66.6897 36.8456 67.8309 32.6027 67.8285 27.6912C67.8432 19.9666 64.5716 12.8885 58.6264 7.90765ZM60.2386 37.8307C59.0699 39.855 57.5401 41.5585 55.7037 43.0022C52.9502 45.1651 49.4943 46.7263 45.7044 47.7329C41.9158 48.7418 37.8019 49.1926 33.8077 49.1913C31.3558 49.1814 27.9298 49.6407 24.1697 51.7827V51.7814C23.7536 52.0116 22.8268 52.5478 21.6057 53.2583C19.8541 54.2798 17.5493 55.6305 15.6257 56.7621C16.0941 54.7749 16.6399 52.4734 17.046 50.7835V50.781C17.1133 50.4987 17.1631 50.1928 17.1631 49.8449C17.1681 49.3547 17.041 48.7567 16.7571 48.2591C16.5451 47.8864 16.2735 47.5929 16.0369 47.3924C15.6731 47.0916 15.4015 46.9616 15.2495 46.8786L15.095 46.8007L15.0775 46.7908C11.7461 44.6576 9.29421 42.0081 7.63494 38.8671C5.97539 35.7211 5.1033 32.0502 5.1033 27.8494C5.1033 24.5053 5.80344 21.4609 7.10158 18.7409C9.05006 14.6677 12.3566 11.2889 16.8766 8.88093C21.3916 6.47781 27.13 5.0714 33.8078 5.0714C43.2513 5.0739 50.4911 7.70846 55.3301 11.7792C60.1615 15.8636 62.708 21.3631 62.7255 27.6909C62.7203 31.8385 61.7883 35.1305 60.2386 37.8307Z" fill="white"/>
<path d="M17.8917 24.1301C15.7352 24.1301 13.9873 25.8684 13.9873 28.0116C13.9873 30.1545 15.7352 31.8917 17.8917 31.8917C20.0495 31.8917 21.7974 30.1547 21.7974 28.0116C21.7975 25.8684 20.0496 24.1301 17.8917 24.1301Z" fill="white"/>
<path d="M33.1227 24.1301C30.9659 24.1301 29.218 25.8684 29.218 28.0116C29.218 30.1545 30.9659 31.8917 33.1227 31.8917C35.2805 31.8917 37.0284 30.1547 37.0284 28.0116C37.0284 25.8684 35.2805 24.1301 33.1227 24.1301Z" fill="white"/>
<path d="M48.3541 24.1301C46.1977 24.1301 44.4484 25.8684 44.4484 28.0116C44.4484 30.1545 46.1977 31.8917 48.3541 31.8917C50.5119 31.8917 52.2601 30.1547 52.2601 28.0116C52.2601 25.8684 50.5119 24.1301 48.3541 24.1301Z" fill="white"/>
</svg>
