<svg width="58" height="58" viewBox="0 0 58 58" fill="none" xmlns="http://www.w3.org/2000/svg">
<path d="M55.0171 20.7157H39.8603C38.2895 20.7157 37.0158 19.4495 37.0158 17.889V2.82574C37.0158 1.26523 35.7426 0 34.1718 0H23.6898C22.119 0 20.8453 1.26523 20.8453 2.82574V17.889C20.8453 19.4495 19.5721 20.7157 18.0013 20.7157H2.84449C1.27317 20.7157 0 21.9809 0 23.5424V33.9586C0 35.5191 1.27317 36.7853 2.84449 36.7853H18.0013C19.5721 36.7853 20.8453 38.0505 20.8453 39.612V54.6733C20.8453 56.2348 22.119 57.5 23.6898 57.5H34.1718C35.7426 57.5 37.0158 56.2348 37.0158 54.6733V39.612C37.0158 38.0505 38.2895 36.7853 39.8603 36.7853H55.0171C56.5879 36.7853 57.8616 35.5191 57.8616 33.9586V23.5424C57.8616 21.9809 56.5879 20.7157 55.0171 20.7157Z" fill="white"/>
</svg>
