<svg width="176" height="176" viewBox="0 0 176 176" fill="none" xmlns="http://www.w3.org/2000/svg">
<rect width="176" height="176" rx="26" fill="url(#paint0_linear)"/>
<path d="M65.5686 141.7C73.042 144.613 80.5786 146.07 88.1786 146.07C95.9053 146.07 102.049 144.107 106.609 140.18C111.169 136.253 113.449 130.807 113.449 123.84C113.449 114.973 109.205 108.133 100.719 103.32C97.0453 101.293 92.9286 99.3933 88.3686 97.62C83.9353 95.8467 79.4386 93.9467 74.8786 91.92C70.4453 89.8933 66.392 87.55 62.7186 84.89C54.232 78.9367 49.9886 70.5767 49.9886 59.81C49.9886 48.9167 53.662 40.43 61.0086 34.35C68.3553 28.1433 77.8553 25.04 89.5086 25.04C101.289 25.04 110.915 27.51 118.389 32.45C125.862 37.39 129.599 43.47 129.599 50.69C129.599 59.3033 126.179 63.61 119.339 63.61C114.145 63.61 110.219 61.6467 107.559 57.72C110.472 55.06 111.929 51.83 111.929 48.03C111.929 44.23 110.092 41.19 106.419 38.91C102.872 36.63 97.6153 35.49 90.6486 35.49C83.682 35.49 78.0453 37.1367 73.7386 40.43C69.5586 43.7233 67.4686 48.03 67.4686 53.35C67.4686 58.5433 68.672 62.7233 71.0786 65.89C73.4853 69.0567 76.5253 71.6533 80.1986 73.68C83.9986 75.7067 88.1786 77.67 92.7386 79.57C97.4253 81.3433 102.049 83.3067 106.609 85.46C111.295 87.6133 115.475 90.0833 119.149 92.87C122.949 95.6567 126.052 99.3933 128.459 104.08C130.865 108.767 132.069 114.213 132.069 120.42C132.069 131.947 127.825 140.877 119.339 147.21C110.979 153.417 99.7686 156.52 85.7086 156.52C78.742 156.52 71.522 155.317 64.0486 152.91C56.702 150.503 51.382 148.16 48.0886 145.88V112.82L58.3486 111.68C59.8686 124.093 62.2753 134.1 65.5686 141.7Z" fill="white"/>
<defs>
<linearGradient id="paint0_linear" x1="8.5" y1="10.5" x2="153" y2="176" gradientUnits="userSpaceOnUse">
<stop stop-color="#46E9C2"/>
<stop offset="1" stop-color="#5653F0"/>
</linearGradient>
</defs>
</svg>
